# xmcd
# 
# Track frame offsets:
#     150
#     10737
#     21910
#     34807
#     46220
#     59472
#     70417
#     84745
#     98035
#     113972
#     123190
#     137922
#     148325
#     159425
# 
# Disc length: 2253
# 
# Revision: 1
# Processed by: cddbd v1.5.2PL0 Copyright (c) Steve Scherf et al.
# Submitted via: fre:ac v1.0.17
# 
DISCID=c308cb0e
DTITLE=Frankie Laine - Gunfighter Ballads and Trail Songs
DYEAR=0
DGENRE=Country
TTITLE0=Gunfight At The OK Corral
TTITLE1=The 3:10 To Yuma
TTITLE2=Cool Water
TTITLE3=Along the Navajo Trail
TTITLE4=The Green Leaves of Summer
TTITLE5=High Noon
TTITLE6=Ghost Riders In The Sky
TTITLE7=Moonlight Gambler
TTITLE8=Tumbling Tumbleweeds
TTITLE9=Rawhide
TTITLE10=The Wayfaring Stranger
TTITLE11=The Hanging Tree
TTITLE12=The 3:10 To Yuma
TTITLE13=Gunfight At The OK Corral
EXTD=
EXTT0=
EXTT1=
EXTT2=
EXTT3=
EXTT4=
EXTT5=
EXTT6=
EXTT7=
EXTT8=
EXTT9=
EXTT10=
EXTT11=
EXTT12=
EXTT13=
PLAYORDER=
